<svg width="152" height="105" viewBox="0 0 152 105" fill="none" xmlns="http://www.w3.org/2000/svg">
<path fill-rule="evenodd" clip-rule="evenodd" d="M76 8.26953C70.0827 8.26953 65.2857 13.0665 65.2857 18.9838C65.2857 24.9012 70.0827 29.6981 76 29.6981C81.9174 29.6981 86.7143 24.9012 86.7143 18.9838C86.7143 13.0665 81.9174 8.26953 76 8.26953ZM57.2857 18.9838C57.2857 8.6482 65.6644 0.269531 76 0.269531C86.3356 0.269531 94.7143 8.6482 94.7143 18.9838C94.7143 27.6853 88.7756 34.9998 80.7302 37.0952V46.4266C85.7431 47.239 90.3301 49.3216 94.1505 52.3334L100.426 46.0583C95.4389 38.7716 96.1808 28.7419 102.651 22.2715C109.96 14.9631 121.809 14.9631 129.117 22.2715C136.426 29.5799 136.426 41.4291 129.117 48.7375C122.914 54.9409 113.439 55.8788 106.246 51.5513L99.7044 58.0932C102.643 62.1141 104.584 66.9109 105.161 72.1187H113.975C115.522 63.3421 123.185 56.6743 132.405 56.6743C142.74 56.6743 151.119 65.053 151.119 75.3886C151.119 85.7242 142.74 94.1029 132.405 94.1029C123.703 94.1029 116.389 88.1641 114.293 80.1187H104.962C102.7 94.0744 90.5945 104.73 76 104.73C61.4056 104.73 49.2999 94.0744 47.038 80.1187H37.7066C35.6112 88.1641 28.2968 94.1029 19.5953 94.1029C9.25965 94.1029 0.880981 85.7242 0.880981 75.3886C0.880981 65.053 9.25965 56.6743 19.5953 56.6743C28.8155 56.6743 36.4783 63.3421 38.0249 72.1187H46.8389C47.4579 66.5365 49.6429 61.4265 52.9448 57.2381L46.6697 50.963C39.3831 55.9498 29.3533 55.208 22.8829 48.7375C15.5745 41.4291 15.5745 29.5799 22.8829 22.2715C30.1912 14.9631 42.0405 14.9631 49.3489 22.2715C55.5522 28.4748 56.4902 37.9497 52.1627 45.1423L58.7046 51.6842C62.7255 48.7454 67.5223 46.8049 72.7302 46.2275V37.4134C63.9535 35.8668 57.2857 28.204 57.2857 18.9838ZM76 54.0473C64.2136 54.0473 54.6588 63.6021 54.6588 75.3886C54.6588 87.175 64.2136 96.7299 76 96.7299C87.7865 96.7299 97.3413 87.175 97.3413 75.3886C97.3413 63.6021 87.7865 54.0473 76 54.0473ZM19.5953 64.6743C13.6779 64.6743 8.88098 69.4712 8.88098 75.3886C8.88098 81.3059 13.6779 86.1029 19.5953 86.1029C25.5126 86.1029 30.3096 81.3059 30.3096 75.3886C30.3096 69.4712 25.5126 64.6743 19.5953 64.6743ZM121.691 75.3886C121.691 69.4712 126.487 64.6743 132.405 64.6743C138.322 64.6743 143.119 69.4712 143.119 75.3886C143.119 81.3059 138.322 86.1029 132.405 86.1029C126.487 86.1029 121.691 81.3059 121.691 75.3886ZM28.5397 27.9283C32.7239 23.7442 39.5078 23.7442 43.692 27.9283C47.8762 32.1125 47.8762 38.8964 43.692 43.0806C39.5078 47.2648 32.7239 47.2648 28.5397 43.0806C24.3555 38.8964 24.3555 32.1125 28.5397 27.9283ZM123.46 27.9283C119.276 23.7442 112.492 23.7442 108.308 27.9283C104.124 32.1125 104.124 38.8964 108.308 43.0806C112.492 47.2648 119.276 47.2648 123.46 43.0806C127.645 38.8964 127.645 32.1125 123.46 27.9283Z" fill="#FCD1CB"/>
</svg>
