<svg width="232" height="76" viewBox="0 0 232 76" fill="none" xmlns="http://www.w3.org/2000/svg">
<path fill-rule="evenodd" clip-rule="evenodd" d="M38.6667 0C27.985 0 19.3333 8.42792 19.3333 18.8333C19.3333 29.2387 27.985 37.6667 38.6667 37.6667C49.3483 37.6667 58 29.2387 58 18.8333C58 8.42792 49.3483 0 38.6667 0ZM48.8168 18.8349C48.8168 13.3732 44.2734 8.9474 38.6668 8.9474C33.0601 8.9474 28.5168 13.3732 28.5168 18.8349C28.5168 24.2966 33.0601 28.7224 38.6668 28.7224C44.2734 28.7224 48.8168 24.2966 48.8168 18.8349ZM68.1501 61.2099C68.1501 58.1966 53.0218 51.3224 38.6668 51.3224C24.3118 51.3224 9.18344 58.1966 9.18344 61.2099V66.3891H68.1501V61.2099ZM0 61.2083C0 48.6842 25.7617 42.375 38.6667 42.375C51.5717 42.375 77.3333 48.6842 77.3333 61.2083V75.3333H0V61.2083ZM116.333 0C105.652 0 97 8.42792 97 18.8333C97 29.2387 105.652 37.6667 116.333 37.6667C127.015 37.6667 135.667 29.2387 135.667 18.8333C135.667 8.42792 127.015 0 116.333 0ZM126.483 18.8349C126.483 13.3732 121.94 8.9474 116.333 8.9474C110.727 8.9474 106.183 13.3732 106.183 18.8349C106.183 24.2966 110.727 28.7224 116.333 28.7224C121.94 28.7224 126.483 24.2966 126.483 18.8349ZM145.817 61.2099C145.817 58.1966 130.688 51.3224 116.333 51.3224C101.978 51.3224 86.8501 58.1966 86.8501 61.2099V66.3891H145.817V61.2099ZM77.6667 61.2083C77.6667 48.6842 103.428 42.375 116.333 42.375C128.632 42.375 152.607 48.1051 154.833 59.4839C157.06 48.1051 181.035 42.375 193.333 42.375C206.238 42.375 232 48.6842 232 61.2083V75.3333H155H154.667H77.6667V61.2083ZM174 18.8333C174 8.42792 182.652 0 193.333 0C204.015 0 212.667 8.42792 212.667 18.8333C212.667 29.2387 204.015 37.6667 193.333 37.6667C182.652 37.6667 174 29.2387 174 18.8333ZM193.333 8.9474C198.94 8.9474 203.483 13.3732 203.483 18.8349C203.483 24.2966 198.94 28.7224 193.333 28.7224C187.727 28.7224 183.183 24.2966 183.183 18.8349C183.183 13.3732 187.727 8.9474 193.333 8.9474ZM193.333 51.3224C207.688 51.3224 222.817 58.1966 222.817 61.2099V66.3891H163.85V61.2099C163.85 58.1966 178.978 51.3224 193.333 51.3224Z" fill="#FCD1CB"/>
</svg>
