<svg width="252" height="70" viewBox="0 0 252 70" fill="none" xmlns="http://www.w3.org/2000/svg">
<path fill-rule="evenodd" clip-rule="evenodd" d="M46 8.01177L20.375 32.3294V62H70.625V32H71.2779L46 8.01177ZM5.96943 46L12 40.2771V62C12 66.4183 15.7496 70 20.375 70H70.625C75.2504 70 79 66.4183 79 62V39.3281L80.0306 40.3061L80 40.3351L85.9694 46L86 45.971L86.0306 46L92 40.3351V62C92 66.4183 95.8056 70 100.5 70H151.5C156.194 70 160 66.4183 160 62V40.3351L165.969 46L166 45.971L166.031 46L172 40.3351V62C172 66.4183 175.75 70 180.375 70H230.625C235.25 70 239 66.4183 239 62V39.3281L246.031 46L252 40.3351L211.969 2.34616C208.672 -0.782062 203.328 -0.782062 200.031 2.34616L166 34.6412L131.969 2.34616C128.672 -0.782062 123.328 -0.782062 120.031 2.34616L86 34.6412L51.9687 2.34616C48.6723 -0.782062 43.3277 -0.782062 40.0313 2.34616L0 40.3351L5.96943 46ZM172 40.3351L171.969 40.3061L172 40.2771V40.3351ZM160 40.3351V40.2771L160.031 40.3061L160 40.3351ZM91.9694 40.3061L92 40.2771V40.3351L91.9694 40.3061ZM100.5 32.2108L126 8.01177L151.5 32.2108V62H100.5V32.2108ZM180.375 32.3294L206 8.01177L231.278 32H230.625V62H180.375V32.3294Z" fill="#FCD1CB"/>
</svg>
