<svg width="398" height="55" viewBox="0 0 398 55" fill="none" xmlns="http://www.w3.org/2000/svg">
<path fill-rule="evenodd" clip-rule="evenodd" d="M397.375 18.4066L371.937 0L346.5 18.4066V55H397.375V18.4066ZM356.674 44.9126V23.5325L371.937 12.4886L387.2 23.5325V44.9126H356.674ZM0 14.8329H15.999V54.9986H27.5698V14.8329H43.5688V5.49858H0V14.8329ZM91.3633 54.9986V45.8057H64.1507V34.35H87.3636V25.44H64.1507V14.6914H90.4348V5.49858H52.6514V54.9986H91.3633ZM126.511 5.49858H138.082V45.6643H163.152V54.9986H126.511V5.49858ZM184.045 5.49858H172.474V54.9986H209.115V45.6643H184.045V5.49858ZM251.782 44.3914H228.569L224.141 54.9986H212.284L234.568 5.49858H245.996L268.352 54.9986H256.21L251.782 44.3914ZM248.139 35.6936L240.211 16.7422L232.283 35.6936H248.139ZM321.822 25.2986L321.894 54.9986H332.75L332.607 5.49858H323.108L304.68 36.2593L285.967 5.49858H276.396V54.9986H287.253V25.935L301.895 49.7657H307.109L321.822 25.2986Z" fill="#1C2F94"/>
</svg>
